# xmcd
#
# Track frame offsets:
# 188
# 17213
# 36638
# 47363
# 63338
# 75863
# 92963
# 114788
# 128063
# 149588
# 162713
# 193013
#
# Disc length: 2730 seconds
#
# Revision: 1
# Processed by: cddbd v1.4PL0 Copyright (c) Steve Scherf et al.
# Submitted via: CedeCatalogueitor 2.5 http://usuarios.lycos.es/kakasboy
#
DISCID=a10aa80c
DTITLE=Big Mama - El Blues De La Inflació
DYEAR=1994
DGENRE=
TTITLE0=Playing With Fire
TTITLE1=Johnny, Jim O Jack
TTITLE2=La Vida és Ara I Aquí
TTITLE3=Summertime
TTITLE4=If You Were A Spider I Should Be A Fly
TTITLE5=Vine A New Orleans Amb Mi
TTITLE6=El Blues De La Inflació
TTITLE7=Walk On
TTITLE8=Hot Blues
TTITLE9=Going Down This Road
TTITLE10=Nens
TTITLE11=People, People
EXTD=+ Amadeus Casas I Víctor Uris
EXTT0=
EXTT1=
EXTT2=
EXTT3=
EXTT4=
EXTT5=
EXTT6=
EXTT7=
EXTT8=
EXTT9=
EXTT10=
EXTT11=
PLAYORDER=
